<svg xmlns="http://www.w3.org/2000/svg" width="502" height="539" fill="none" viewBox="0 0 502 539">
  <g clip-path="url(#a)">
    <path fill="#fff" d="M0 0h502v539H0z"/>
    <circle cx="17.5" cy="508.5" r="152" stroke="#F3AC46" stroke-width="17"/>
    <circle cx="381" cy="382" r="14" fill="#C0FAC7"/>
    <circle cx="237" cy="464" r="14" fill="#7D73C1"/>
    <circle cx="209" cy="84" r="14" fill="#C0FAC7"/>
    <circle cx="381" cy="382" r="14" fill="#FADFC0"/>
    <path stroke="#FF727D" stroke-width="3" d="M432.304 483.283c-22.746 4.867-9.478 24.764 0 34.104 11.686 17.333 26.513-10.323 44.131-12.351 17.617-2.028 11.686-30.97-5.931-45.348-17.618-14.379-9.768 17.512-38.2 23.595Z" opacity=".8"/>
    <path stroke="#7D73C1" stroke-width="3" d="M430.108 490.726c-21.929 4.682-9.137 23.822 0 32.807 11.267 16.674 25.561-9.931 42.546-11.881 16.985-1.951 11.267-29.793-5.717-43.625-16.985-13.832-9.418 16.847-36.829 22.699Z" opacity=".5"/>
    <path stroke="#FF727D" stroke-width="3" d="M58.303 103.283c-22.745 4.867-9.477 24.764 0 34.104 11.687 17.333 26.514-10.323 44.132-12.351 17.617-2.028 11.686-30.97-5.931-45.349-17.618-14.378-9.768 17.513-38.2 23.596Z" opacity=".8"/>
    <path stroke="#7D73C1" stroke-width="3" d="M56.108 110.726c-21.929 4.682-9.137 23.822 0 32.807 11.267 16.674 25.561-9.931 42.546-11.881 16.985-1.951 11.267-29.793-5.718-43.625-16.984-13.832-9.417 16.847-36.828 22.699Z" opacity=".5"/>
    <circle cx="380.281" cy="149.373" r="13.373" fill="#F3AC46"/>
    <circle cx="286.5" cy="274.5" r="49.5" fill="#E5F346"/>
    <circle cx="54.127" cy="457.127" r="33.127" fill="#FF727D"/>
    <circle cx="113" cy="282" r="23" fill="#7291FF"/>
    <circle cx="558.5" cy="-4.5" r="152" stroke="#FF727D" stroke-width="17"/>
  </g>
  <defs>
    <clipPath id="a">
      <path fill="#fff" d="M0 0h502v539H0z"/>
    </clipPath>
  </defs>
</svg>
